<svg width="114" height="37" viewBox="0 0 114 37" fill="none" xmlns="http://www.w3.org/2000/svg">
<path d="M0 33.8043C0 15.1347 15.1347 0 33.8043 0H114V3.19565C114 21.8653 98.8653 37 80.1956 37H0V33.8043Z" fill="#FF951D"/>
<path d="M41.6471 14.48C41.7991 14.48 41.9151 14.528 41.9951 14.624C42.0831 14.712 42.1271 14.832 42.1271 14.984V22.556C42.1271 22.708 42.0831 22.832 41.9951 22.928C41.9151 23.016 41.7991 23.06 41.6471 23.06C41.4951 23.06 41.3751 23.016 41.2871 22.928C41.1991 22.832 41.1551 22.708 41.1551 22.556V19.124H36.0911V22.556C36.0911 22.708 36.0471 22.832 35.9591 22.928C35.8711 23.016 35.7511 23.06 35.5991 23.06C35.4471 23.06 35.3271 23.016 35.2391 22.928C35.1591 22.832 35.1191 22.708 35.1191 22.556V14.984C35.1191 14.832 35.1591 14.712 35.2391 14.624C35.3271 14.528 35.4471 14.48 35.5991 14.48C35.7511 14.48 35.8711 14.528 35.9591 14.624C36.0471 14.712 36.0911 14.832 36.0911 14.984V18.284H41.1551V14.984C41.1551 14.832 41.1991 14.712 41.2871 14.624C41.3751 14.528 41.4951 14.48 41.6471 14.48ZM46.4928 23.084C45.9408 23.084 45.4528 22.96 45.0288 22.712C44.6128 22.464 44.2888 22.112 44.0568 21.656C43.8328 21.192 43.7208 20.656 43.7208 20.048C43.7208 19.44 43.8328 18.908 44.0568 18.452C44.2888 17.988 44.6128 17.632 45.0288 17.384C45.4528 17.136 45.9408 17.012 46.4928 17.012C47.0448 17.012 47.5328 17.136 47.9568 17.384C48.3808 17.632 48.7048 17.988 48.9288 18.452C49.1608 18.908 49.2768 19.44 49.2768 20.048C49.2768 20.656 49.1608 21.192 48.9288 21.656C48.7048 22.112 48.3808 22.464 47.9568 22.712C47.5328 22.96 47.0448 23.084 46.4928 23.084ZM46.4928 22.28C47.0688 22.28 47.5088 22.092 47.8128 21.716C48.1248 21.332 48.2808 20.776 48.2808 20.048C48.2808 19.336 48.1248 18.788 47.8128 18.404C47.5008 18.012 47.0608 17.816 46.4928 17.816C45.9248 17.816 45.4848 18.012 45.1728 18.404C44.8608 18.788 44.7048 19.336 44.7048 20.048C44.7048 20.768 44.8568 21.32 45.1608 21.704C45.4728 22.088 45.9168 22.28 46.4928 22.28ZM53.4134 22.292C53.6934 22.316 53.8334 22.444 53.8334 22.676C53.8334 22.812 53.7814 22.916 53.6774 22.988C53.5814 23.052 53.4334 23.076 53.2334 23.06L52.9094 23.036C52.2694 22.988 51.7974 22.796 51.4934 22.46C51.1894 22.124 51.0374 21.616 51.0374 20.936V17.924H50.2334C50.0974 17.924 49.9894 17.892 49.9094 17.828C49.8374 17.756 49.8014 17.664 49.8014 17.552C49.8014 17.432 49.8374 17.336 49.9094 17.264C49.9894 17.192 50.0974 17.156 50.2334 17.156H51.0374V15.8C51.0374 15.648 51.0814 15.532 51.1694 15.452C51.2574 15.364 51.3774 15.32 51.5294 15.32C51.6734 15.32 51.7894 15.364 51.8774 15.452C51.9654 15.532 52.0094 15.648 52.0094 15.8V17.156H53.3414C53.4694 17.156 53.5694 17.192 53.6414 17.264C53.7214 17.336 53.7614 17.432 53.7614 17.552C53.7614 17.664 53.7214 17.756 53.6414 17.828C53.5694 17.892 53.4694 17.924 53.3414 17.924H52.0094V20.984C52.0094 21.424 52.0974 21.744 52.2734 21.944C52.4574 22.136 52.7294 22.244 53.0894 22.268L53.4134 22.292ZM60.7292 23.096C60.1292 23.096 59.5532 23.008 59.0012 22.832C58.4572 22.648 58.0212 22.404 57.6932 22.1C57.5732 21.988 57.5132 21.848 57.5132 21.68C57.5132 21.568 57.5452 21.472 57.6092 21.392C57.6732 21.304 57.7492 21.26 57.8372 21.26C57.9412 21.26 58.0532 21.304 58.1732 21.392C58.9172 21.968 59.7652 22.256 60.7172 22.256C61.4052 22.256 61.9332 22.124 62.3012 21.86C62.6692 21.596 62.8532 21.22 62.8532 20.732C62.8532 20.452 62.7652 20.228 62.5892 20.06C62.4132 19.884 62.1812 19.744 61.8932 19.64C61.6052 19.536 61.2172 19.428 60.7292 19.316C60.0732 19.164 59.5332 19.004 59.1092 18.836C58.6932 18.668 58.3532 18.428 58.0892 18.116C57.8332 17.804 57.7052 17.396 57.7052 16.892C57.7052 16.412 57.8332 15.988 58.0892 15.62C58.3532 15.244 58.7172 14.956 59.1812 14.756C59.6532 14.548 60.1892 14.444 60.7892 14.444C61.3492 14.444 61.8692 14.532 62.3492 14.708C62.8372 14.876 63.2452 15.12 63.5732 15.44C63.7012 15.568 63.7652 15.708 63.7652 15.86C63.7652 15.972 63.7332 16.072 63.6692 16.16C63.6052 16.24 63.5292 16.28 63.4412 16.28C63.3532 16.28 63.2372 16.236 63.0932 16.148C62.7012 15.828 62.3372 15.604 62.0012 15.476C61.6652 15.348 61.2612 15.284 60.7892 15.284C60.1252 15.284 59.6092 15.424 59.2412 15.704C58.8732 15.976 58.6892 16.36 58.6892 16.856C58.6892 17.28 58.8492 17.6 59.1692 17.816C59.4972 18.024 59.9972 18.208 60.6692 18.368C61.3972 18.544 61.9692 18.708 62.3852 18.86C62.8012 19.004 63.1452 19.224 63.4172 19.52C63.6972 19.816 63.8372 20.212 63.8372 20.708C63.8372 21.18 63.7052 21.596 63.4412 21.956C63.1852 22.316 62.8212 22.596 62.3492 22.796C61.8772 22.996 61.3372 23.096 60.7292 23.096ZM67.6795 17.012C69.1435 17.012 69.8755 17.78 69.8755 19.316V22.58C69.8755 22.724 69.8315 22.84 69.7435 22.928C69.6635 23.016 69.5515 23.06 69.4075 23.06C69.2635 23.06 69.1475 23.016 69.0595 22.928C68.9715 22.84 68.9275 22.724 68.9275 22.58V22.004C68.7755 22.348 68.5435 22.616 68.2315 22.808C67.9195 22.992 67.5595 23.084 67.1515 23.084C66.7755 23.084 66.4275 23.008 66.1075 22.856C65.7955 22.704 65.5475 22.492 65.3635 22.22C65.1795 21.948 65.0875 21.648 65.0875 21.32C65.0875 20.88 65.1995 20.54 65.4235 20.3C65.6475 20.052 66.0155 19.876 66.5275 19.772C67.0395 19.66 67.7515 19.604 68.6635 19.604H68.9275V19.208C68.9275 18.728 68.8275 18.376 68.6275 18.152C68.4355 17.928 68.1195 17.816 67.6795 17.816C67.1355 17.816 66.5835 17.964 66.0235 18.26C65.8075 18.396 65.6555 18.464 65.5675 18.464C65.4715 18.464 65.3915 18.428 65.3275 18.356C65.2635 18.284 65.2315 18.192 65.2315 18.08C65.2315 17.968 65.2635 17.872 65.3275 17.792C65.3995 17.704 65.5115 17.616 65.6635 17.528C65.9435 17.368 66.2595 17.244 66.6115 17.156C66.9715 17.06 67.3275 17.012 67.6795 17.012ZM67.2835 22.316C67.7635 22.316 68.1555 22.156 68.4595 21.836C68.7715 21.508 68.9275 21.088 68.9275 20.576V20.228H68.7115C68.0075 20.228 67.4715 20.26 67.1035 20.324C66.7355 20.38 66.4715 20.48 66.3115 20.624C66.1595 20.76 66.0835 20.964 66.0835 21.236C66.0835 21.548 66.1955 21.808 66.4195 22.016C66.6515 22.216 66.9395 22.316 67.2835 22.316ZM72.1468 23.06C72.0028 23.06 71.8828 23.02 71.7868 22.94C71.6988 22.852 71.6548 22.732 71.6548 22.58V14.96C71.6548 14.808 71.6988 14.692 71.7868 14.612C71.8828 14.524 72.0028 14.48 72.1468 14.48C72.2828 14.48 72.3948 14.524 72.4828 14.612C72.5788 14.692 72.6268 14.808 72.6268 14.96V22.58C72.6268 22.732 72.5788 22.852 72.4828 22.94C72.3948 23.02 72.2828 23.06 72.1468 23.06ZM78.9678 21.644C79.0558 21.644 79.1318 21.68 79.1958 21.752C79.2598 21.824 79.2918 21.916 79.2918 22.028C79.2918 22.228 79.1518 22.412 78.8718 22.58C78.5838 22.748 78.2798 22.876 77.9598 22.964C77.6398 23.044 77.3278 23.084 77.0238 23.084C76.1198 23.084 75.4038 22.816 74.8758 22.28C74.3558 21.744 74.0958 21.004 74.0958 20.06C74.0958 19.46 74.2118 18.932 74.4438 18.476C74.6758 18.012 74.9998 17.652 75.4158 17.396C75.8398 17.14 76.3198 17.012 76.8558 17.012C77.6158 17.012 78.2198 17.26 78.6678 17.756C79.1158 18.252 79.3398 18.924 79.3398 19.772C79.3398 19.932 79.3078 20.048 79.2438 20.12C79.1798 20.192 79.0758 20.228 78.9318 20.228H75.0678C75.1398 21.604 75.7918 22.292 77.0238 22.292C77.3358 22.292 77.6038 22.252 77.8278 22.172C78.0518 22.084 78.2918 21.968 78.5478 21.824C78.7558 21.704 78.8958 21.644 78.9678 21.644ZM76.8678 17.768C76.3558 17.768 75.9438 17.928 75.6318 18.248C75.3278 18.568 75.1478 19.02 75.0918 19.604H78.4878C78.4718 19.012 78.3238 18.56 78.0438 18.248C77.7638 17.928 77.3718 17.768 76.8678 17.768Z" fill="white"/>
</svg>
